<svg width="38" height="38" viewBox="0 0 38 38" fill="none" xmlns="http://www.w3.org/2000/svg">
<path d="M28.7373 14.4791L28.2623 28.8562C28.2218 30.0875 27.7031 31.2546 26.8162 32.1097C25.9294 32.9649 24.7442 33.4408 23.5123 33.4364H14.4873C13.2561 33.4408 12.0716 32.9656 11.1849 32.1115C10.2982 31.2573 9.77893 30.0914 9.73726 28.861L9.26226 14.4791C9.25186 14.1642 9.36701 13.858 9.58236 13.628C9.79771 13.3979 10.0956 13.2629 10.4106 13.2525C10.7255 13.2421 11.0317 13.3572 11.2617 13.5726C11.4918 13.7879 11.6269 14.0858 11.6373 14.4008L12.1123 28.7814C12.1359 29.3953 12.3965 29.9762 12.8394 30.402C13.2823 30.8278 13.8729 31.0654 14.4873 31.065H23.5123C24.1274 31.0654 24.7187 30.8271 25.1617 30.4003C25.6047 29.9734 25.8648 29.3914 25.8873 28.7767L26.3623 14.4008C26.3727 14.0858 26.5077 13.7879 26.7378 13.5726C26.9678 13.3572 27.274 13.2421 27.5889 13.2525C27.9039 13.2629 28.2018 13.3979 28.4172 13.628C28.6325 13.858 28.7476 14.1642 28.7373 14.4791ZM30.3083 9.69471C30.3083 10.0097 30.1832 10.3117 29.9605 10.5344C29.7378 10.7571 29.4358 10.8822 29.1208 10.8822H8.87988C8.56494 10.8822 8.26289 10.7571 8.04019 10.5344C7.81749 10.3117 7.69238 10.0097 7.69238 9.69471C7.69238 9.37977 7.81749 9.07772 8.04019 8.85502C8.26289 8.63232 8.56494 8.50721 8.87988 8.50721H12.5611C12.9374 8.50822 13.3006 8.36921 13.58 8.11723C13.8594 7.86525 14.0351 7.51832 14.0728 7.14396C14.1604 6.26579 14.5719 5.45169 15.2269 4.86029C15.882 4.26889 16.7338 3.94254 17.6163 3.94484H20.3832C21.2657 3.94254 22.1175 4.26889 22.7726 4.86029C23.4276 5.45169 23.8391 6.26579 23.9267 7.14396C23.9644 7.51832 24.1401 7.86525 24.4195 8.11723C24.6989 8.36921 25.0621 8.50822 25.4384 8.50721H29.1196C29.4346 8.50721 29.7366 8.63232 29.9593 8.85502C30.182 9.07772 30.3071 9.37977 30.3071 9.69471H30.3083ZM16.1343 8.50721H21.8676C21.7115 8.15066 21.6095 7.77284 21.5648 7.38621C21.5353 7.0935 21.3983 6.82213 21.1802 6.62468C20.9622 6.42723 20.6786 6.31775 20.3844 6.31746H17.6175C17.3233 6.31775 17.0397 6.42723 16.8216 6.62468C16.6036 6.82213 16.4665 7.0935 16.4371 7.38621C16.392 7.7729 16.2908 8.15072 16.1343 8.50721ZM17.3301 26.499V16.3875C17.3301 16.0725 17.205 15.7705 16.9823 15.5478C16.7596 15.3251 16.4576 15.2 16.1426 15.2C15.8277 15.2 15.5256 15.3251 15.3029 15.5478C15.0802 15.7705 14.9551 16.0725 14.9551 16.3875V26.5038C14.9551 26.8187 15.0802 27.1208 15.3029 27.3435C15.5256 27.5662 15.8277 27.6913 16.1426 27.6913C16.4576 27.6913 16.7596 27.5662 16.9823 27.3435C17.205 27.1208 17.3301 26.8187 17.3301 26.5038V26.499ZM23.0468 26.499V16.3875C23.0468 16.0725 22.9216 15.7705 22.6989 15.5478C22.4762 15.3251 22.1742 15.2 21.8593 15.2C21.5443 15.2 21.2423 15.3251 21.0196 15.5478C20.7969 15.7705 20.6718 16.0725 20.6718 16.3875V26.5038C20.6718 26.8187 20.7969 27.1208 21.0196 27.3435C21.2423 27.5662 21.5443 27.6913 21.8593 27.6913C22.1742 27.6913 22.4762 27.5662 22.6989 27.3435C22.9216 27.1208 23.0468 26.8187 23.0468 26.5038V26.499Z" fill="#FF4343"/>
</svg>
