<svg width="38" height="38" viewBox="0 0 38 38" fill="none" xmlns="http://www.w3.org/2000/svg">
<path d="M32.4353 5.56507C34.2902 7.42006 34.2902 10.4276 32.4353 12.2826L14.8924 29.8254C14.1315 30.5864 13.178 31.1262 12.134 31.3872L6.6929 32.7475C5.8232 32.9649 5.03542 32.1771 5.25285 31.3074L6.61313 25.8663C6.87413 24.8223 7.41396 23.8689 8.1749 23.1079L25.7177 5.56507C27.5727 3.71008 30.5803 3.71008 32.4353 5.56507ZM24.0382 10.603L9.85428 24.7873C9.39771 25.2439 9.07382 25.8159 8.91721 26.4423L8.03695 29.9634L11.558 29.0831C12.1844 28.9265 12.7565 28.6026 13.213 28.146L27.3964 13.9612L24.0382 10.603ZM27.3971 7.24445L25.7173 8.92383L29.0756 12.2821L30.7559 10.6032C31.6834 9.67571 31.6834 8.17194 30.7559 7.24445C29.8284 6.31695 28.3246 6.31695 27.3971 7.24445Z" fill="#8174A0"/>
</svg>
