<svg width="35" height="35" viewBox="0 0 35 35" fill="none" xmlns="http://www.w3.org/2000/svg">
<path fill-rule="evenodd" clip-rule="evenodd" d="M17.5 3.5C9.76801 3.5 3.5 9.76801 3.5 17.5C3.5 21.1734 4.91411 24.5173 7.23099 27.0161C7.31846 26.7266 7.4348 26.4424 7.58656 26.171C8.10106 25.2511 8.75008 24.4005 9.52016 23.6484C10.293 22.8936 11.1649 22.2601 12.1053 21.7596C10.673 20.3886 9.77753 18.4724 9.77753 16.3333C9.77753 12.1065 13.2741 8.75 17.5 8.75C21.7259 8.75 25.2225 12.1065 25.2225 16.3333C25.2225 18.4724 24.327 20.3886 22.8947 21.7596C23.8351 22.2601 24.707 22.8936 25.4798 23.6484C26.2499 24.4005 26.8989 25.2511 27.4134 26.171C27.5652 26.4424 27.6815 26.7266 27.769 27.0161C30.0859 24.5173 31.5 21.1734 31.5 17.5C31.5 9.76801 25.232 3.5 17.5 3.5ZM24.397 29.6864C24.4649 29.3369 24.499 29.0088 24.5 28.718C24.5017 28.2377 24.4137 27.9777 24.3588 27.8795C24.0078 27.252 23.5638 26.6694 23.0343 26.1523C21.5734 24.7254 19.5834 23.9167 17.5 23.9167C15.4166 23.9167 13.4266 24.7254 11.9657 26.1523C11.4362 26.6694 10.9922 27.252 10.6412 27.8795C10.5863 27.9777 10.4983 28.2377 10.5 28.718C10.501 29.0088 10.5351 29.3369 10.603 29.6864C12.6376 30.8407 14.9896 31.5 17.5 31.5C20.0104 31.5 22.3624 30.8407 24.397 29.6864ZM17.5 20.4167C19.8711 20.4167 21.7225 18.5498 21.7225 16.3333C21.7225 14.1168 19.8711 12.25 17.5 12.25C15.1289 12.25 13.2775 14.1168 13.2775 16.3333C13.2775 18.5498 15.1289 20.4167 17.5 20.4167ZM0 17.5C0 7.83502 7.83502 0 17.5 0C27.165 0 35 7.83502 35 17.5C35 23.7252 31.7483 29.1897 26.859 32.2895C24.1513 34.0062 20.939 35 17.5 35C14.061 35 10.8487 34.0062 8.14103 32.2895C3.25174 29.1897 0 23.7252 0 17.5Z" fill="#FFE2AB"/>
</svg>
