<svg width="35" height="35" viewBox="0 0 35 35" fill="none" xmlns="http://www.w3.org/2000/svg">
<path d="M32.6667 0H2.33333C1.71449 0 1.121 0.245833 0.683417 0.683417C0.245833 1.121 0 1.71449 0 2.33333V32.6667C0 33.2855 0.245833 33.879 0.683417 34.3166C1.121 34.7542 1.71449 35 2.33333 35H32.6667C33.2855 35 33.879 34.7542 34.3166 34.3166C34.7542 33.879 35 33.2855 35 32.6667V2.33333C35 1.71449 34.7542 1.121 34.3166 0.683417C33.879 0.245833 33.2855 0 32.6667 0ZM26.8333 25.6667H8.16667C7.85725 25.6667 7.5605 25.5438 7.34171 25.325C7.12292 25.1062 7 24.8094 7 24.5C7 24.1906 7.12292 23.8938 7.34171 23.675C7.5605 23.4562 7.85725 23.3333 8.16667 23.3333H26.8333C27.1428 23.3333 27.4395 23.4562 27.6583 23.675C27.8771 23.8938 28 24.1906 28 24.5C28 24.8094 27.8771 25.1062 27.6583 25.325C27.4395 25.5438 27.1428 25.6667 26.8333 25.6667ZM26.8333 18.6667H8.16667C7.85725 18.6667 7.5605 18.5438 7.34171 18.325C7.12292 18.1062 7 17.8094 7 17.5C7 17.1906 7.12292 16.8938 7.34171 16.675C7.5605 16.4562 7.85725 16.3333 8.16667 16.3333H26.8333C27.1428 16.3333 27.4395 16.4562 27.6583 16.675C27.8771 16.8938 28 17.1906 28 17.5C28 17.8094 27.8771 18.1062 27.6583 18.325C27.4395 18.5438 27.1428 18.6667 26.8333 18.6667ZM26.8333 11.6667H8.16667C7.85725 11.6667 7.5605 11.5437 7.34171 11.325C7.12292 11.1062 7 10.8094 7 10.5C7 10.1906 7.12292 9.89383 7.34171 9.67504C7.5605 9.45625 7.85725 9.33333 8.16667 9.33333H26.8333C27.1428 9.33333 27.4395 9.45625 27.6583 9.67504C27.8771 9.89383 28 10.1906 28 10.5C28 10.8094 27.8771 11.1062 27.6583 11.325C27.4395 11.5437 27.1428 11.6667 26.8333 11.6667Z" fill="#FFE2AB"/>
</svg>
