<svg width="31" height="33" viewBox="0 0 31 33" fill="none" xmlns="http://www.w3.org/2000/svg">
<path d="M11.3544 29.2917V24.8194C11.3544 23.6818 12.2818 22.7575 13.4308 22.7499H17.6397C18.7942 22.7499 19.7301 23.6764 19.7301 24.8194V29.3056C19.7298 30.2714 20.5085 31.0608 21.4838 31.0834H24.2897C27.0868 31.0834 29.3543 28.8386 29.3543 26.0694V13.3469C29.3394 12.2575 28.8227 11.2345 27.9514 10.5691L18.3552 2.91615C16.674 1.58362 14.2842 1.58362 12.6031 2.91615L3.04895 10.583C2.17429 11.2457 1.65677 12.2704 1.646 13.3608V26.0694C1.646 28.8386 3.91352 31.0834 6.71066 31.0834H9.51657C10.5161 31.0834 11.3264 30.2812 11.3264 29.2917" stroke="#FFE2AB" stroke-width="3" stroke-linecap="round" stroke-linejoin="round"/>
</svg>
