<svg width="200" height="200" viewBox="0 0 200 200" fill="none" xmlns="http://www.w3.org/2000/svg">
<g clip-path="url(#clip0_116_127)">
<path opacity="0.6" d="M100 200C155.228 200 200 155.228 200 100C200 44.7715 155.228 0 100 0C44.7715 0 0 44.7715 0 100C0 155.228 44.7715 200 100 200Z" fill="#A888B5"/>
<path fill-rule="evenodd" clip-rule="evenodd" d="M100 22C67.968 22 42 49.968 42 82V146C42 148.652 43.0536 151.196 44.9289 153.071C46.8043 154.946 49.3478 156 52 156H148C150.652 156 153.196 154.946 155.071 153.071C156.946 151.196 158 148.652 158 146V82C158 49.968 132.032 22 100 22Z" fill="#D35400"/>
<path d="M48 108C55.732 108 62 101.732 62 94C62 86.268 55.732 80 48 80C40.268 80 34 86.268 34 94C34 101.732 40.268 108 48 108Z" fill="#D48A6D"/>
<path d="M152 108C159.732 108 166 101.732 166 94C166 86.268 159.732 80 152 80C144.268 80 138 86.268 138 94C138 101.732 144.268 108 152 108Z" fill="#D48A6D"/>
<path fill-rule="evenodd" clip-rule="evenodd" d="M100 34C128.718 34 152 57.282 152 86V116C152 144.718 128.718 168 100 168C71.282 168 48 144.718 48 116V86C48 57.282 71.282 34 100 34Z" fill="#DF9274"/>
<path fill-rule="evenodd" clip-rule="evenodd" d="M100 20C67.968 20 42 47.968 42 80C79.232 80 120 52 120 52C120 52 143.124 80 158 80C158 47.968 132.032 20 100 20Z" fill="#D35400"/>
<path d="M80 105C75.038 105 71 100.962 71 96C71 91.038 75.038 87 80 87C84.962 87 89 91.038 89 96C89 100.962 84.962 105 80 105Z" fill="#3498DB"/>
<path d="M80 90C83.308 90 86 92.692 86 96C86 99.308 83.308 102 80 102C76.692 102 74 99.308 74 96C74 92.692 76.692 90 80 90ZM80 84C76.8174 84 73.7652 85.2643 71.5147 87.5147C69.2643 89.7652 68 92.8174 68 96C68 99.1826 69.2643 102.235 71.5147 104.485C73.7652 106.736 76.8174 108 80 108C83.1826 108 86.2348 106.736 88.4853 104.485C90.7357 102.235 92 99.1826 92 96C92 92.8174 90.7357 89.7652 88.4853 87.5147C86.2348 85.2643 83.1826 84 80 84Z" fill="white"/>
<path d="M120 105C115.038 105 111 100.962 111 96C111 91.038 115.038 87 120 87C124.962 87 129 91.038 129 96C129 100.962 124.962 105 120 105Z" fill="#3498DB"/>
<path d="M120 90C123.308 90 126 92.692 126 96C126 99.308 123.308 102 120 102C116.692 102 114 99.308 114 96C114 92.692 116.692 90 120 90ZM120 84C116.817 84 113.765 85.2643 111.515 87.5147C109.264 89.7652 108 92.8174 108 96C108 99.1826 109.264 102.235 111.515 104.485C113.765 106.736 116.817 108 120 108C123.183 108 126.235 106.736 128.485 104.485C130.736 102.235 132 99.1826 132 96C132 92.8174 130.736 89.7652 128.485 87.5147C126.235 85.2643 123.183 84 120 84Z" fill="white"/>
<path d="M118 130C118 141.046 109.942 150 100 150C90.058 150 82 141.046 82 130H118Z" fill="white" stroke="#B87054" stroke-width="4" stroke-miterlimit="10"/>
</g>
<defs>
<clipPath id="clip0_116_127">
<rect width="200" height="200" fill="white"/>
</clipPath>
</defs>
</svg>
