<svg width="60" height="60" viewBox="0 0 60 60" fill="none" xmlns="http://www.w3.org/2000/svg">
<path fill-rule="evenodd" clip-rule="evenodd" d="M29.9999 6.66658C17.1133 6.66658 6.66658 17.1133 6.66658 29.9999C6.66658 36.1223 9.02343 41.6954 12.8849 45.86C13.0307 45.3776 13.2246 44.9038 13.4775 44.4516C14.335 42.9185 15.4167 41.5008 16.7002 40.2473C17.9882 38.9892 19.4414 37.9334 21.0088 37.0993C18.6216 34.8142 17.1291 31.6206 17.1291 28.0555C17.1291 21.0108 22.9568 15.4166 29.9999 15.4166C37.0431 15.4166 42.8707 21.0108 42.8707 28.0555C42.8707 31.6206 41.3782 34.8142 38.991 37.0993C40.5584 37.9334 42.0116 38.9892 43.2997 40.2473C44.5831 41.5008 45.6648 42.9185 46.5223 44.4516C46.7752 44.9038 46.9692 45.3776 47.1149 45.86C50.9764 41.6954 53.3332 36.1223 53.3332 29.9999C53.3332 17.1133 42.8866 6.66658 29.9999 6.66658ZM41.4949 50.3106C41.6081 49.728 41.6648 49.1812 41.6665 48.6966C41.6693 47.896 41.5227 47.4627 41.4312 47.2991C40.8462 46.2533 40.1062 45.2822 39.2238 44.4204C36.7889 42.0423 33.4723 40.6944 29.9999 40.6944C26.5276 40.6944 23.2109 42.0423 20.7761 44.4204C19.8937 45.2822 19.1536 46.2533 18.5686 47.2991C18.4772 47.4627 18.3305 47.896 18.3333 48.6966C18.335 49.1812 18.3917 49.728 18.505 50.3106C21.896 52.2345 25.8159 53.3332 29.9999 53.3332C34.1839 53.3332 38.1038 52.2345 41.4949 50.3106ZM29.9999 34.861C33.9518 34.861 37.0374 31.7496 37.0374 28.0555C37.0374 24.3613 33.9518 21.2499 29.9999 21.2499C26.048 21.2499 22.9625 24.3613 22.9625 28.0555C22.9625 31.7496 26.048 34.861 29.9999 34.861ZM0.833252 29.9999C0.833252 13.8916 13.8916 0.833252 29.9999 0.833252C46.1082 0.833252 59.1666 13.8916 59.1666 29.9999C59.1666 40.3753 53.747 49.4828 45.5982 54.6491C41.0853 57.5103 35.7316 59.1666 29.9999 59.1666C24.2682 59.1666 18.9145 57.5103 14.4016 54.6491C6.25281 49.4828 0.833252 40.3753 0.833252 29.9999Z" fill="#FFD2A0"/>
</svg>
