<svg width="588" height="208" viewBox="0 0 588 208" fill="none" xmlns="http://www.w3.org/2000/svg">
<g filter="url(#filter0_d_116_165)">
<rect x="4" width="580" height="200" rx="10" fill="#FFEECF"/>
<rect x="4.05" y="0.05" width="579.9" height="199.9" rx="9.95" stroke="#D6D6D6" stroke-width="0.1" stroke-linecap="round"/>
<circle cx="289" cy="100" r="70" fill="#A888B5"/>
<circle cx="289" cy="100" r="50" fill="#FFEECF"/>
<path d="M348.041 136.59L345.01 141.419L341.04 146.59L333.952 153.428L329.469 157.19L319.177 162.535L312.301 165.571L305.082 167.668L294.703 169.852L282.357 169.559L272.66 167.77L261.807 164.273L253.304 159.92L262.95 142.571L268.248 145.431L274.956 147.777L287.345 149.65L296.657 148.919L305.456 146.779L315.45 142.075L321.812 137.629L327.491 131.304L330.692 126.945L333.723 122.116L335.643 117.16L337.264 112.845L356.532 112.844L356.532 117.534L354.656 124.07L351.37 131.121L348.041 136.59Z" fill="#F7DCF7"/>
<path d="M246 45L250.5 41.5L256 38L265 34L270.5 32L282 30.5L289.5 30L297 30.5L307.5 32L319 36.5L327.5 41.5L336.5 48.5L343 55.5L328 68.5L324 64L318.5 59.5L307.5 53.5L298.5 51L289.5 50L278.5 51L271 53L263.5 57L259 60L254.5 63.5L251 67.5L248 71L228 66L231.5 60L235.5 54.5L241 49L246 45Z" fill="#8174A0"/>
<circle cx="476" cy="99.6177" r="70" fill="#A888B5"/>
<circle cx="476" cy="99.6177" r="50" fill="#FFEECF"/>
<path d="M463.524 30.6922L469.14 29.7129L475.639 29.2028L485.464 29.8934L491.259 30.7079L502.118 34.7793L508.976 37.8569L515.365 41.8176L523.933 48.069L531.977 57.4389L537.137 65.8427L541.8 76.2472L544.256 85.4787L524.91 89.9205L523.489 84.0698L520.744 77.5152L513.845 67.0553L507.07 60.6246L499.592 55.5186L489.409 51.2403L481.847 49.4873L473.347 49.5005L467.966 50.0382L462.349 51.0175L457.382 52.9076L453.09 54.5907L437.775 40.791L443.681 37.1347L449.794 34.1547L457.231 31.8784L463.524 30.6922Z" fill="#F7DCF7"/>
<circle cx="102" cy="100" r="70" fill="#A888B5"/>
<circle cx="102" cy="100" r="50" fill="#FFEECF"/>
<path d="M92.8898 169.237L87.2367 168.5L80.8803 167.053L71.7066 163.469L66.4164 160.966L57.2614 153.847L51.6306 148.867L46.7107 143.184L40.3915 134.666L35.5014 123.326L33.0768 113.767L31.7221 102.446L32.1259 92.9024L51.9172 94.4208L51.532 100.429L52.2019 107.504L55.6741 119.543L60.2274 127.699L65.847 134.8L74.295 141.915L80.9919 145.84L89.1105 148.357L94.4081 149.446L100.061 150.183L105.366 149.857L109.964 149.528L118.012 167.035L113.751 168.993L107.028 170.019L99.2499 169.978L92.8898 169.237Z" fill="#8174A0"/>
</g>
<defs>
<filter id="filter0_d_116_165" x="0" y="0" width="588" height="208" filterUnits="userSpaceOnUse" color-interpolation-filters="sRGB">
<feFlood flood-opacity="0" result="BackgroundImageFix"/>
<feColorMatrix in="SourceAlpha" type="matrix" values="0 0 0 0 0 0 0 0 0 0 0 0 0 0 0 0 0 0 127 0" result="hardAlpha"/>
<feOffset dy="4"/>
<feGaussianBlur stdDeviation="2"/>
<feComposite in2="hardAlpha" operator="out"/>
<feColorMatrix type="matrix" values="0 0 0 0 0 0 0 0 0 0 0 0 0 0 0 0 0 0 0.25 0"/>
<feBlend mode="normal" in2="BackgroundImageFix" result="effect1_dropShadow_116_165"/>
<feBlend mode="normal" in="SourceGraphic" in2="effect1_dropShadow_116_165" result="shape"/>
</filter>
</defs>
</svg>
