<svg width="33" height="34" viewBox="0 0 33 34" fill="none" xmlns="http://www.w3.org/2000/svg">
<path d="M32.1071 32.667C32.5998 32.1743 32.5985 31.3751 32.1042 30.884L24.944 23.77C23.27 22.096 27.1017 16.4858 26.866 13.0328C26.6303 9.57976 25.0725 6.35055 22.5165 4.0169C19.9605 1.68326 16.6033 0.424853 13.1431 0.503474C9.68298 0.582095 6.38635 1.99169 3.93902 4.43902C1.49169 6.88635 0.0820952 10.183 0.00347406 13.6431C-0.0751471 17.1033 1.18326 20.4605 3.5169 23.0165C5.85055 25.5725 9.07976 27.1303 12.5328 27.366C15.9858 27.6017 21.1361 24.3739 22.712 26.0019L30.3878 32.7239C30.8865 33.1606 31.6384 33.1357 32.1071 32.667ZM2.48486 13.9703C2.48486 11.7976 3.12915 9.67367 4.33624 7.86712C5.54334 6.06057 7.25903 4.65254 9.26636 3.82108C11.2737 2.98962 13.4825 2.77207 15.6135 3.19594C17.7444 3.61982 19.7019 4.66608 21.2382 6.20242C22.7745 7.73877 23.8208 9.69619 24.2447 11.8272C24.6686 13.9581 24.451 16.1669 23.6195 18.1743C22.7881 20.1816 21.38 21.8973 19.5735 23.1044C17.767 24.3115 15.643 24.9558 13.4703 24.9558C10.5578 24.9525 7.76546 23.7941 5.70599 21.7346C3.64652 19.6752 2.48809 16.8828 2.48486 13.9703Z" fill="#FFD2A0"/>
</svg>
